<?xml version="1.0" encoding="UTF-8" standalone="no"?>
<!DOCTYPE svg PUBLIC "-//W3C//DTD SVG 1.1//EN" "http://www.w3.org/Graphics/SVG/1.1/DTD/svg11.dtd">
<svg width="100%" height="100%" viewBox="0 0 5833 660" version="1.1" xmlns="http://www.w3.org/2000/svg" xmlns:xlink="http://www.w3.org/1999/xlink" xml:space="preserve" xmlns:serif="http://www.serif.com/" style="fill-rule:evenodd;clip-rule:evenodd;stroke-linejoin:round;stroke-miterlimit:2;">
    <g transform="matrix(1,0,0,1,-1083.5,-3841.6)">
        <path d="M1636.44,4062.42C1625.07,4051.49 1611.87,4043.29 1596.87,4037.38C1581.84,4031.47 1565.47,4028.73 1547.29,4028.73C1530.91,4028.73 1516.36,4031 1504.07,4036.02C1491.33,4041.02 1480.87,4047.84 1472.67,4056.04C1464.04,4064.69 1457.67,4074.27 1453.11,4084.73C1448.58,4095.64 1446.29,4107.04 1446.29,4118.42C1446.29,4132.98 1448.58,4144.82 1453.11,4154.84C1457.67,4164.4 1463.58,4172.6 1470.87,4178.98C1478.13,4185.8 1486.33,4190.8 1495.42,4194.91C1504.98,4199 1514.53,4202.64 1524.09,4205.84C1534.09,4209.02 1543.64,4212.2 1552.73,4214.93C1562.29,4218.13 1570.47,4221.78 1577.76,4225.87C1585.04,4229.95 1590.95,4235.42 1595.49,4241.8C1600.04,4248.18 1602.31,4255.91 1602.31,4265.93C1602.31,4275.04 1600.49,4282.78 1597.78,4290.07C1594.58,4297.36 1590.04,4303.71 1584.58,4309.18C1578.67,4314.2 1571.84,4318.29 1563.64,4321.02C1555.47,4324.2 1546.38,4325.58 1535.91,4325.58C1523.18,4325.58 1512.24,4323.76 1503.6,4320.58C1494.95,4316.93 1487.69,4313.29 1481.31,4309.18C1475.4,4305.09 1470.4,4301.44 1466.31,4297.8C1462.22,4294.62 1458.58,4292.8 1455.4,4292.8C1453.11,4292.8 1451.29,4293.24 1449.47,4294.62C1447.67,4295.53 1446.29,4296.89 1444.93,4298.71L1432.2,4319.67C1444.47,4332.87 1459.49,4343.33 1476.78,4351.07C1494.07,4358.8 1513.15,4362.44 1534.53,4362.44C1551.82,4362.44 1566.84,4359.71 1580.49,4354.27C1594.13,4349.24 1605.51,4341.95 1615.07,4332.4C1624.16,4323.29 1631.42,4312.38 1636.44,4300.09C1640.98,4287.33 1643.71,4274.13 1643.71,4259.56C1643.71,4246.36 1641.44,4234.98 1636.89,4225.42C1632.33,4216.31 1626.42,4208.56 1619.15,4202.2C1611.87,4195.82 1603.22,4190.36 1594.13,4186.27C1584.58,4182.15 1575.02,4178.51 1565.47,4174.87C1555.47,4171.69 1545.91,4168.51 1536.82,4165.31C1527.27,4162.13 1519.07,4158.49 1511.8,4154.38C1504.51,4150.29 1498.6,4144.82 1494.07,4138.91C1489.51,4132.98 1487.22,4125.24 1487.22,4116.13C1487.22,4109.31 1488.6,4102.49 1491.33,4096.56C1493.6,4090.2 1497.69,4084.73 1502.69,4080.18C1507.71,4075.62 1514.07,4072.44 1521.8,4069.71C1529.09,4066.98 1537.73,4065.6 1547.73,4065.6C1558.2,4065.6 1567.29,4066.98 1574.58,4069.24C1581.84,4071.98 1588.22,4074.71 1593.22,4077.89C1598.69,4081.09 1602.78,4083.82 1606.42,4086.56C1609.6,4089.29 1612.78,4090.2 1615.51,4090.2C1617.78,4090.2 1619.6,4089.73 1621.42,4088.82C1622.8,4087.47 1624.16,4085.64 1625.51,4083.36L1636.44,4062.42Z" style="fill:rgb(0,168,107);"/>
    </g>
    <g transform="matrix(1,0,0,1,-1083.5,-3841.6)">
        <path d="M1847.04,4358.8L1886.62,4358.8L1969.42,4113.87C1970.33,4111.6 1970.78,4108.87 1971.69,4106.13C1972.13,4103.4 1973.04,4100.67 1973.96,4097.47C1975.33,4103.84 1976.69,4108.87 1978.51,4113.87L2060.84,4358.8L2100.42,4358.8L2202.31,4032.38L2167.76,4032.38C2164.11,4032.38 2160.91,4033.29 2158.2,4035.56C2155.47,4037.84 2153.64,4040.11 2153.18,4042.84L2085.4,4270.49C2084.04,4274.58 2083.13,4278.69 2082.69,4283.24C2081.78,4287.78 2080.87,4292.8 2079.95,4297.8C2077.67,4287.78 2075.4,4278.69 2072.67,4270.49L1996.71,4042.84C1995.33,4039.64 1993.53,4037.38 1991.24,4035.56C1988.51,4033.29 1985.33,4032.38 1981.69,4032.38L1968.96,4032.38C1964.87,4032.38 1961.69,4033.29 1958.95,4035.56C1956.22,4037.84 1954.87,4040.11 1953.95,4042.84L1877.07,4270.49C1875.71,4274.58 1874.33,4279.13 1873.44,4283.69C1872.53,4288.69 1871.15,4293.71 1870.24,4298.71C1869.33,4293.71 1868.42,4288.69 1867.51,4283.69C1866.6,4279.13 1865.24,4274.58 1864.33,4270.49L1797.02,4042.84C1796.11,4039.64 1794.29,4037.38 1791.56,4035.56C1788.82,4033.29 1785.64,4032.38 1782,4032.38L1745.15,4032.38L1847.04,4358.8Z" style="fill:rgb(0,168,107);"/>
    </g>
    <g transform="matrix(1,0,0,1,-1083.5,-3841.6)">
        <path d="M2443.4,4032.38L2398.82,4032.38L2268.29,4358.8L2302.4,4358.8C2306.04,4358.8 2309.22,4357.91 2311.95,4355.62C2314.67,4353.36 2316.49,4351.07 2317.4,4348.33L2347.89,4269.58L2494.36,4269.58L2524.84,4348.33C2525.76,4351.53 2527.55,4353.8 2530.29,4355.62C2532.58,4357.91 2535.76,4358.8 2539.84,4358.8L2573.95,4358.8L2443.4,4032.38ZM2411.58,4105.22C2412.93,4101.11 2414.29,4096.56 2416.11,4091.56C2417.49,4086.09 2419.31,4080.62 2421.11,4074.27C2424.31,4086.56 2427.49,4097.02 2430.67,4105.22L2482.07,4237.71L2360.16,4237.71L2411.58,4105.22Z" style="fill:rgb(0,168,107);"/>
    </g>
    <g transform="matrix(1,0,0,1,-1083.5,-3841.6)">
        <path d="M2778.67,4222.69C2784.58,4222.69 2789.11,4223.6 2792.31,4224.95C2795.49,4226.78 2798.22,4229.51 2800.95,4233.15L2885.55,4349.71C2889.2,4356.09 2895.11,4358.8 2903.29,4358.8L2942.42,4358.8L2847.36,4229.51C2842.8,4223.13 2838.24,4218.58 2832.8,4215.4C2845.07,4212.67 2856.44,4208.11 2866.44,4202.64C2876.47,4197.18 2884.64,4190.36 2891.47,4182.15C2898.29,4174.42 2903.76,4165.31 2907.4,4155.29C2911.02,4145.29 2912.84,4134.36 2912.84,4122.98C2912.84,4108.87 2910.58,4096.56 2906.02,4085.18C2901.02,4074.27 2893.76,4064.69 2884.2,4056.95C2874.18,4048.76 2861.91,4042.84 2846.89,4038.76C2831.89,4034.64 2814.13,4032.38 2793.67,4032.38L2701.33,4032.38L2701.33,4358.8L2745.44,4358.8L2745.44,4222.69L2778.67,4222.69ZM2745.44,4067.42L2793.67,4067.42C2818.69,4067.42 2837.8,4072.44 2850.53,4082C2863.27,4092.02 2870.09,4106.58 2870.09,4126.15C2870.09,4135.71 2868.27,4144.38 2865.09,4152.11C2861.44,4159.84 2856.44,4166.69 2850.07,4172.6C2843.24,4178.07 2835.07,4182.62 2825.51,4185.8C2815.51,4189 2804.13,4190.36 2791.4,4190.36L2745.44,4190.36L2745.44,4067.42Z" style="fill:rgb(0,168,107);"/>
    </g>
    <g transform="matrix(1,0,0,1,-1083.5,-3841.6)">
        <path d="M3232.18,4241.36L3119.38,4040.11C3117.56,4036.47 3115.27,4034.2 3113.47,4033.73C3111.18,4032.82 3108,4032.38 3104.36,4032.38L3071.6,4032.38L3071.6,4358.8L3110.27,4358.8L3110.27,4118.87C3110.27,4115.69 3110.27,4112.51 3109.82,4108.4C3109.82,4104.76 3109.36,4101.11 3108.91,4097.02L3223.09,4301.44C3226.73,4308.27 3232.18,4311.91 3239,4311.91L3245.38,4311.91C3252.2,4311.91 3257.64,4308.27 3261.29,4301.44L3373.2,4097.47C3372.73,4101.58 3372.29,4105.22 3372.29,4108.87L3372.29,4358.8L3410.95,4358.8L3410.95,4032.38L3378.2,4032.38C3374.11,4032.38 3371.38,4032.82 3369.11,4033.73C3366.82,4034.2 3365,4036.47 3363.2,4040.11L3252.64,4241.36C3250.38,4245 3248.56,4249.09 3247.2,4253.18C3245.38,4256.82 3243.56,4260.93 3242.2,4265.02C3240.82,4260.93 3239,4256.82 3237.64,4253.18C3235.82,4249.09 3234,4245 3232.18,4241.36Z" style="fill:rgb(0,168,107);"/>
    </g>
    <g transform="matrix(1,0,0,1,-1083.5,-3841.6)">
        <path d="M4136.27,4036.47L4124.89,4036.47L4124.89,4358.8L4145.36,4358.8L4145.36,4087.47C4145.36,4083.36 4145.36,4079.27 4144.91,4074.71L4353.71,4354.27C4355.98,4357.44 4358.71,4358.8 4362.36,4358.8L4373.27,4358.8L4373.27,4036.47L4352.8,4036.47L4352.8,4306.44C4352.8,4311 4353.24,4315.11 4353.71,4319.67L4145.36,4040.56C4144,4038.76 4142.64,4037.84 4141.27,4037.38C4140.36,4036.93 4138.53,4036.47 4136.27,4036.47Z" style="fill:white;stroke:white;stroke-width:4.17px;"/>
    </g>
    <g transform="matrix(1,0,0,1,-1083.5,-3841.6)">
        <path d="M4661.2,4036.47L4638,4036.47L4506.53,4358.8L4524.27,4358.8C4526.09,4358.8 4527.91,4358.36 4529.73,4357C4531.09,4355.62 4532,4354.27 4532.91,4352.44L4570.67,4259.11L4728.51,4259.11L4766.73,4352.44C4767.18,4354.27 4768.56,4356.09 4769.91,4357C4771.27,4358.36 4772.64,4358.8 4774.91,4358.8L4793.11,4358.8L4661.2,4036.47ZM4643.44,4079.71C4644.36,4076.98 4645.27,4073.8 4646.64,4070.62C4647.56,4067.42 4648.44,4063.78 4649.82,4060.13C4650.73,4063.78 4651.64,4067.42 4653,4070.62C4653.91,4073.8 4654.82,4076.98 4656.18,4079.27L4721.69,4242.27L4577.49,4242.27L4643.44,4079.71Z" style="fill:white;stroke:white;stroke-width:4.17px;"/>
    </g>
    <g transform="matrix(1,0,0,1,-1083.5,-3841.6)">
        <path d="M4948.89,4036.47L4925.69,4036.47L4925.69,4358.8L5101.73,4358.8L5101.73,4338.78L4948.89,4338.78L4948.89,4036.47Z" style="fill:white;stroke:white;stroke-width:4.17px;"/>
    </g>
    <g transform="matrix(1,0,0,1,-1083.5,-3841.6)">
        <path d="M5415.62,4036.47L5395.13,4036.47C5392.87,4036.47 5391.04,4036.93 5389.69,4037.84C5388.31,4039.2 5387.4,4040.56 5386.51,4041.93L5294.15,4189.89C5292.33,4193.53 5290.51,4197.18 5288.71,4200.38C5287.33,4203.56 5285.98,4206.76 5284.6,4209.93C5283.69,4206.76 5282.33,4203.56 5280.51,4200.38C5279.15,4197.18 5277.33,4193.53 5275.04,4189.89L5183.18,4041.93C5181.8,4040.11 5180.44,4038.76 5179.07,4037.84C5177.71,4036.93 5176.33,4036.47 5174.07,4036.47L5154.04,4036.47L5272.78,4225.87L5272.78,4358.8L5296.44,4358.8L5296.44,4225.87L5415.62,4036.47Z" style="fill:white;stroke:white;stroke-width:4.17px;"/>
    </g>
    <g transform="matrix(1,0,0,1,-1083.5,-3841.6)">
        <path d="M5510.91,4036.47L5510.91,4056.51L5624.62,4056.51L5624.62,4358.8L5647.82,4358.8L5647.82,4056.51L5761.09,4056.51L5761.09,4036.47L5510.91,4036.47Z" style="fill:white;stroke:white;stroke-width:4.17px;"/>
    </g>
    <g transform="matrix(1,0,0,1,-1083.5,-3841.6)">
        <rect x="5906.44" y="4036.47" width="23.644" height="322.333" style="fill:white;stroke:white;stroke-width:4.17px;"/>
    </g>
    <g transform="matrix(1,0,0,1,-1083.5,-3841.6)">
        <path d="M6347.67,4305.09C6347.22,4305.53 6346.31,4306 6345.84,4306.44C6339.49,4312.38 6332.67,4317.84 6326.29,4321.93C6319.91,4326.49 6312.64,4330.13 6305.36,4333.31C6297.62,4336.51 6289.44,4338.78 6280.36,4340.13C6271.24,4341.51 6260.78,4342.42 6249.42,4342.42C6231.22,4342.42 6213.93,4339.24 6198.47,4332.4C6182.56,4326.02 6168.89,4316.47 6157.53,4304.18C6146.15,4291.42 6137.07,4276.4 6130.69,4258.64C6123.87,4240.44 6120.69,4220.4 6120.69,4197.64C6120.69,4175.33 6123.87,4155.29 6130.69,4137.53C6137.07,4119.78 6146.6,4104.31 6158.44,4092.02C6170.27,4079.27 6184.36,4069.71 6200.73,4062.87C6217.11,4056.04 6234.87,4052.87 6254.42,4052.87C6264.89,4052.87 6274.42,4053.78 6283.07,4055.13C6291.27,4056.95 6298.53,4058.78 6304.91,4061.04C6311.29,4063.33 6316.73,4066.07 6321.29,4068.8C6325.84,4071.53 6329.93,4074.27 6333.11,4076.53C6336.29,4078.8 6339.02,4081.09 6341.31,4082.44C6343.58,4084.27 6345.4,4084.73 6346.76,4084.73C6349.04,4084.73 6350.84,4083.82 6352.22,4082L6359.49,4071.98C6352.22,4065.6 6344.93,4060.13 6337.67,4055.13C6329.93,4050.13 6322.2,4046.02 6313.56,4042.84C6305.36,4039.64 6296.27,4037.38 6286.71,4035.56C6276.71,4033.73 6266.24,4032.82 6254.42,4032.82C6231.22,4032.82 6209.84,4036.93 6190.29,4044.67C6171.18,4052.87 6154.33,4063.78 6140.69,4078.36C6126.6,4092.93 6115.67,4110.22 6107.93,4130.71C6100.2,4150.76 6096.58,4173.04 6096.58,4197.64C6096.58,4222.22 6100.2,4245 6107.93,4265.47C6115.22,4285.95 6125.69,4303.27 6138.87,4317.38C6152.07,4331.95 6167.98,4342.87 6186.64,4350.62C6205.29,4358.36 6225.76,4362.44 6248.04,4362.44C6261.24,4362.44 6273.53,4361.53 6284.89,4359.27C6295.82,4357 6306.27,4353.8 6315.38,4349.71C6324.93,4345.6 6333.58,4341.04 6341.31,4335.13C6349.04,4329.67 6356.31,4323.29 6363.13,4316.02L6354.04,4306C6353.13,4305.09 6351.76,4304.62 6350.4,4304.62C6349.49,4304.62 6348.58,4304.62 6347.67,4305.09Z" style="fill:white;stroke:white;stroke-width:4.17px;"/>
    </g>
    <g transform="matrix(1,0,0,1,-1083.5,-3841.6)">
        <path d="M6679.04,4065.16C6668.13,4054.22 6655.84,4046.49 6642.67,4041.02C6629.47,4035.56 6614.47,4032.82 6598.09,4032.82C6583.07,4032.82 6569.89,4035.11 6558.04,4039.64C6546.69,4044.2 6536.67,4050.58 6528.93,4058.31C6521.2,4066.07 6515.29,4074.71 6511.2,4084.73C6507.11,4094.76 6504.82,4105.22 6504.82,4115.69C6504.82,4129.8 6507.11,4141.18 6511.64,4150.29C6516.2,4159.4 6522.58,4167.13 6530.31,4173.51C6537.58,4179.42 6546.22,4184.44 6555.78,4188.53C6565.33,4192.62 6575.33,4195.82 6585.8,4199C6595.8,4202.2 6605.82,4205.84 6615.38,4209.02C6624.91,4212.2 6633.56,4216.31 6641.29,4221.31C6648.58,4226.33 6654.93,4232.69 6659.49,4239.98C6664.04,4247.27 6666.31,4256.38 6666.31,4267.76C6666.31,4278.22 6664.49,4288.24 6660.84,4297.36C6657.22,4306.44 6651.76,4314.64 6644.93,4321.02C6638.11,4327.84 6629.93,4333.31 6619.91,4336.95C6609.91,4341.04 6598.53,4342.87 6585.8,4342.87C6576.24,4342.87 6568.07,4341.95 6560.78,4340.13C6553.51,4338.33 6547.13,4336.04 6541.67,4333.31C6536.22,4330.58 6531.22,4327.84 6526.67,4324.67C6522.58,4321.47 6518.93,4318.76 6515.76,4316.02C6513.02,4313.29 6510.29,4311 6508.02,4309.18C6506.2,4307.36 6504.38,4306.44 6503,4306.44C6500.73,4306.44 6498.47,4307.82 6496.64,4310.09L6490.27,4320.11C6501.64,4333.31 6515.29,4343.33 6530.31,4351.07C6545.78,4358.8 6563.95,4362.44 6585.33,4362.44C6601.71,4362.44 6616.27,4359.71 6629.02,4354.71C6641.76,4349.71 6652.22,4342.87 6661.31,4333.78C6669.95,4325.11 6676.78,4314.64 6681.33,4302.8C6685.87,4290.98 6688.15,4278.22 6688.15,4264.58C6688.15,4251.36 6685.87,4240.44 6681.33,4231.78C6676.78,4222.69 6670.4,4215.4 6663.13,4209.02C6655.4,4203.11 6646.76,4198.09 6637.2,4194C6627.64,4189.89 6617.64,4186.27 6607.64,4183.07C6597.18,4179.89 6587.15,4176.24 6577.62,4173.04C6568.07,4169.42 6559.42,4165.31 6552.13,4160.31C6544.4,4155.29 6538.04,4149.38 6533.49,4142.09C6528.93,4134.8 6526.67,4125.71 6526.67,4114.78C6526.67,4106.58 6528.02,4098.84 6531.22,4091.11C6534.4,4083.36 6538.95,4076.98 6544.87,4071.07C6550.78,4065.16 6558.51,4060.6 6567.15,4057.42C6576.24,4054.22 6586.24,4052.4 6598.09,4052.4C6609.91,4052.4 6619.47,4053.78 6627.64,4056.51C6635.38,4059.69 6642.2,4062.87 6647.67,4066.07C6652.67,4069.71 6656.76,4072.89 6659.96,4075.62C6663.13,4078.36 6665.87,4079.71 6667.69,4079.71C6670.4,4079.71 6672.22,4078.36 6673.6,4075.62L6679.04,4065.16Z" style="fill:white;stroke:white;stroke-width:4.17px;"/>
    </g>
    <g transform="matrix(1,0,0,1,-1083.5,-3841.6)">
        <path d="M3860.38,4036.47L3837.18,4036.47L3705.71,4358.8L3723.47,4358.8C3725.27,4358.8 3727.09,4358.36 3728.91,4357C3730.29,4355.62 3731.2,4354.27 3732.11,4352.44L3769.87,4259.11L3927.71,4259.11L3965.91,4352.44C3966.38,4354.27 3967.73,4356.09 3969.09,4357C3970.47,4358.36 3971.82,4358.8 3974.11,4358.8L3992.29,4358.8L3860.38,4036.47ZM3842.64,4079.71C3843.56,4076.98 3844.47,4073.8 3845.82,4070.62C3846.73,4067.42 3847.64,4063.78 3849,4060.13C3849.91,4063.78 3850.82,4067.42 3852.2,4070.62C3853.11,4073.8 3854,4076.98 3855.38,4079.27L3920.89,4242.27L3776.69,4242.27L3842.64,4079.71Z" style="fill:white;stroke:white;stroke-width:4.17px;stroke-linejoin:miter;stroke-miterlimit:1;"/>
    </g>
</svg>
